<?xml version="1.0" encoding="UTF-8" standalone="no"?>
<!-- Created with Inkscape (http://www.inkscape.org/) -->

<svg
   version="1.1"
   id="svg383"
   width="96.043999"
   height="76.494392"
   viewBox="0 0 96.043999 76.494393"
   sodipodi:docname="flower.svg"
   inkscape:version="1.2.1 (9c6d41e4, 2022-07-14)"
   xmlns:inkscape="http://www.inkscape.org/namespaces/inkscape"
   xmlns:sodipodi="http://sodipodi.sourceforge.net/DTD/sodipodi-0.dtd"
   xmlns="http://www.w3.org/2000/svg"
   xmlns:svg="http://www.w3.org/2000/svg">
  <defs
     id="defs387">
    <clipPath
       clipPathUnits="userSpaceOnUse"
       id="clipPath399">
      <path
         d="M 0,57.371 H 72.033 V 0 H 0 Z"
         id="path397" />
    </clipPath>
  </defs>
  <sodipodi:namedview
     id="namedview385"
     pagecolor="#ffffff"
     bordercolor="#000000"
     borderopacity="0.25"
     inkscape:showpageshadow="2"
     inkscape:pageopacity="0.0"
     inkscape:pagecheckerboard="0"
     inkscape:deskcolor="#d1d1d1"
     showgrid="false"
     inkscape:zoom="5.5821085"
     inkscape:cx="26.065419"
     inkscape:cy="43.352794"
     inkscape:window-width="1390"
     inkscape:window-height="1010"
     inkscape:window-x="0"
     inkscape:window-y="23"
     inkscape:window-maximized="0"
     inkscape:current-layer="g391" />
  <g
     id="g391"
     inkscape:groupmode="layer"
     inkscape:label="Page 1"
     transform="matrix(-1.3333333,0,0,-1.3333333,96.043998,76.494398)">
    <g
       id="g393">
      <g
         id="g395"
         clip-path="url(#clipPath399)">
        <g
           id="g401"
           transform="translate(69.6535,41.0159)">
          <path
             d="M 0,0 C 0.022,0.558 0.13,1.074 0.235,1.575 0.431,2.505 0.586,3.247 0.168,4.049 0.162,4.057 0.156,4.064 0.149,4.072 0.087,3.99 0.025,3.907 -0.037,3.824 -0.571,3.109 -1.123,2.37 -1.867,1.794 -2.855,1.03 -3.691,0.139 -4.42,-0.928 -4.732,-1.841 -4.981,-2.817 -5.161,-3.831 l -0.073,-0.408 c 0.131,-0.398 0.289,-0.792 0.477,-1.186 C -2.555,-4.154 -0.996,-2.374 0,0"
             style="fill:#ffffff;fill-opacity:1;fill-rule:nonzero;stroke:none"
             id="path403" />
        </g>
        <g
           id="g405"
           transform="translate(8.736,38.4318)">
          <path
             d="M 0,0 C 0.646,0.32 1.298,0.642 1.949,0.964 L 2.318,1.278 C 2.532,1.343 2.729,1.394 2.913,1.441 2.958,1.464 3.002,1.486 3.047,1.508 3.049,1.498 3.051,1.487 3.052,1.478 3.896,1.696 4.407,1.863 4.706,2.892 4.992,3.879 4.512,4.902 4.282,5.904 4.009,7.086 4.087,8.322 4.266,9.522 c 0.129,0.865 0.311,1.726 0.615,2.546 0.786,2.12 2.477,3.955 4.635,4.63 0.651,0.204 1.329,0.302 2.005,0.386 1.88,0.234 3.834,0.359 5.627,-0.254 0.243,-0.083 0.483,-0.184 0.717,-0.3 0.036,0.017 0.07,0.032 0.107,0.049 0.005,-0.04 0.008,-0.073 0.013,-0.111 0.651,-0.339 1.245,-0.798 1.715,-1.347 0.274,-0.685 0.45,-1.412 0.574,-2.142 0.041,-0.245 0.082,-0.501 0.227,-0.704 0.012,-0.017 0.03,-0.03 0.044,-0.046 0.153,-0.173 0.403,-0.275 0.605,-0.169 0.192,0.1 0.264,0.333 0.331,0.539 0.03,0.092 0.067,0.182 0.107,0.271 0.025,-0.028 0.05,-0.054 0.076,-0.083 0.217,0.448 0.505,0.891 0.698,1.138 0.625,0.795 1.644,1.103 2.595,1.299 1.254,0.259 2.536,0.379 3.817,0.355 0.998,-0.018 2.038,-0.138 2.876,-0.681 1.013,-0.657 1.574,-1.839 1.822,-3.02 C 33.977,9.479 33.375,6.94 32.193,4.793 31.01,2.646 29.281,0.849 27.441,-0.77 27.344,-0.856 27.236,-0.946 27.107,-0.954 27.019,-0.96 25.911,-2.436 25.361,-3.243 c 0.056,-0.032 0.14,-0.08 0.238,-0.136 0,-0.004 -0.001,-0.009 -0.001,-0.013 0.034,-0.355 0.511,-0.438 0.867,-0.424 0.356,0.015 0.711,0.029 1.066,0.044 0.895,-0.365 1.835,0.046 2.959,0.391 0.341,0.026 0.676,-0.038 0.999,-0.152 0.161,-0.069 0.329,-0.142 0.503,-0.217 0.151,-0.075 0.299,-0.156 0.444,-0.24 0.431,-0.25 0.851,-0.519 1.27,-0.788 0.66,-0.423 1.339,-0.867 1.764,-1.525 0.04,-0.064 0.073,-0.131 0.108,-0.197 -0.015,-0.025 -0.028,-0.048 -0.044,-0.073 0.073,-0.097 0.141,-0.19 0.213,-0.286 0.124,-0.311 0.216,-0.637 0.29,-0.964 0.145,-0.632 0.236,-1.266 0.285,-1.902 -0.014,-0.073 -0.028,-0.145 -0.042,-0.219 0.021,-0.035 0.043,-0.071 0.065,-0.107 0.099,-1.813 -0.146,-3.637 -0.553,-5.456 -1.83,-2.209 -2.944,-5.139 -6.143,-5.839 -1.542,-0.29 -3.078,-0.616 -4.629,-0.85 -0.576,-0.087 -1.196,0.129 -1.777,0.057 -1.016,-0.126 -2.018,-0.367 -3.055,-0.566 0.367,-1.101 0.672,-2.018 0.997,-2.994 0.024,-0.201 0.041,-0.402 0.049,-0.604 0.026,-0.681 -0.037,-1.365 -0.179,-2.032 -0.026,-0.06 -0.051,-0.118 -0.077,-0.178 0.009,-0.013 0.018,-0.027 0.028,-0.041 -0.204,-0.844 -0.539,-1.655 -1.011,-2.384 -0.325,-0.501 -0.715,-0.961 -1.153,-1.368 -0.432,-0.316 -0.861,-0.63 -1.284,-0.94 -0.428,-0.247 -0.88,-0.453 -1.353,-0.598 -1.298,-0.4 -2.719,-0.378 -4.009,0.047 -0.033,0.002 -0.067,0.005 -0.099,0.01 -1.76,0.233 -3.525,0.836 -4.824,2.046 -2.061,1.921 -2.572,4.94 -2.967,7.73 -0.122,0.859 -0.211,1.837 0.353,2.495 0.235,0.275 0.56,0.458 0.805,0.723 0.146,0.158 0.251,0.355 0.315,0.564 -0.013,0.02 -0.027,0.04 -0.04,0.06 0.02,0.006 0.04,0.011 0.06,0.017 0.146,0.585 -0.043,1.237 -0.671,1.372 -0.113,-0.189 -0.303,-0.342 -0.509,-0.43 -0.336,-0.144 -0.71,-0.164 -1.069,-0.24 -0.631,-0.134 -1.222,-0.452 -1.681,-0.906 -0.415,-0.41 -0.837,-0.976 -1.417,-0.911 -0.025,0.003 -0.047,0.012 -0.071,0.017 0.099,0.081 0.194,0.166 0.28,0.261 0.569,0.625 0.816,1.528 0.645,2.356 -0.127,0.616 -0.556,1.235 -1.18,1.316 1.176,0.44 2.194,1.29 2.836,2.369 0.633,1.064 0.891,2.403 0.452,3.561 -0.405,1.064 -1.484,1.878 -2.605,1.851 -0.072,0.035 -0.139,0.08 -0.215,0.11 0.472,0.73 0.433,1.763 -0.12,2.439 -0.433,0.53 -1.147,0.796 -1.825,0.734 -0.075,0.08 -0.149,0.161 -0.226,0.24 0.346,0.356 0.643,0.757 0.813,1.22 0.033,0.091 0.06,0.185 0.081,0.28 0.107,0.46 0.073,0.954 -0.129,1.368 -0.059,0.121 -0.128,0.237 -0.216,0.34 -0.443,0.518 -1.161,0.694 -1.835,0.796 -0.162,0.025 -0.457,0.088 -0.807,0.154 0.393,0.158 0.787,0.317 1.18,0.476 0.065,0.081 0.131,0.161 0.197,0.241 0,10e-4 -10e-4,0.002 -0.002,0.003 0.003,0.001 0.005,0.002 0.007,0.003 0.259,0.309 0.535,0.601 0.87,0.822 C -1.003,-0.035 -0.478,0.114 0,0 m 34.75,2.172 0.342,0.131 c 0.402,0.154 0.803,0.311 1.205,0.468 1.716,0.672 3.49,1.366 5.262,1.778 0.921,0.214 2.195,-0.165 3.32,-0.498 L 45.167,3.966 C 46.025,3.714 46.856,3.36 47.735,2.986 48.366,2.718 49.019,2.44 49.688,2.201 49.875,2.134 50.208,1.914 50.58,1.498 l 0.125,-0.117 c 0.1,-0.079 0.191,-0.159 0.262,-0.224 0.624,-0.57 1.155,-1.244 1.576,-2.004 l 0.229,-0.448 c 0.178,-0.375 0.323,-0.75 0.437,-1.149 l 0.23,-0.796 c 0.38,-1.202 0.76,-2.404 1.126,-3.61 0.334,-1.101 0.628,-2.094 0.848,-3.09 0.107,-0.483 0.136,-1.009 0.168,-1.565 l 0.02,-0.344 c 0.015,-0.247 0.037,-0.495 0.058,-0.743 0.058,-0.671 0.112,-1.304 0.044,-1.891 -0.104,-0.889 -0.3,-1.783 -0.507,-2.73 -0.093,-0.423 -0.187,-0.853 -0.275,-1.294 l -0.185,-0.922 0.023,-0.006 c -0.129,-0.633 -0.317,-1.497 -0.465,-2.083 l -0.241,-0.949 0.118,-0.03 c -0.063,-0.373 -0.145,-0.801 -0.216,-1.068 l -1.033,-5.692 c -0.035,-0.159 -0.067,-0.296 -0.095,-0.406 l -0.068,-0.038 -0.879,-4.157 0.072,-0.04 c -0.07,-0.6 -0.193,-1.442 -0.316,-1.736 -0.06,-0.104 -0.392,-0.327 -0.634,-0.489 -0.162,-0.109 -0.338,-0.227 -0.521,-0.361 -0.261,-0.007 -0.379,0.027 -0.39,0.027 -10e-4,0 -10e-4,0 -10e-4,-10e-4 -0.3,0.172 -0.603,0.277 -0.94,0.383 0.243,1.659 0.576,3.76 0.645,4.104 0.057,0.196 0.116,0.393 0.175,0.59 0.188,0.626 0.382,1.273 0.521,1.921 1.485,6.898 1.908,10.442 1.976,12.256 l -0.391,3.783 0.011,0.106 -0.025,0.08 c -0.002,0.062 -0.003,0.149 -0.004,0.255 -0.063,4.765 -0.687,7.807 -1.905,9.286 -0.274,0.613 -0.578,1.157 -0.927,1.657 -1.615,2.314 -4.265,3.651 -7.666,3.865 -3.543,0.221 -6.512,-0.643 -8.835,-2.581 -0.161,0.046 -0.302,0.098 -0.408,0.159 -0.114,0.064 -0.178,0.1 -0.152,0.34 0.344,0.738 1.204,1.385 2.193,2.13 0.13,0.097 0.26,0.196 0.392,0.296 m 21.006,-3.419 c 0.18,1.014 0.43,1.99 0.741,2.903 0.729,1.067 1.565,1.958 2.553,2.722 0.745,0.576 1.297,1.315 1.831,2.03 0.062,0.083 0.124,0.166 0.186,0.248 C 61.073,6.648 61.079,6.641 61.086,6.633 61.504,5.831 61.348,5.089 61.153,4.159 61.048,3.658 60.939,3.142 60.917,2.584 59.922,0.21 58.362,-1.569 56.161,-2.841 c -0.188,0.394 -0.347,0.788 -0.478,1.186 z m -6.645,-9.835 c -0.899,0.335 -1.796,0.676 -2.693,1.017 -0.687,0.261 -1.373,0.522 -2.061,0.781 l -0.093,0.028 c -0.076,0.037 -0.72,0.445 -1.416,3.883 1.634,-0.971 3.482,-1.565 5.606,-1.804 0.608,-1.327 0.723,-2.641 0.657,-3.905 M -3.727,0.715 c -0.747,-0.519 -1.282,-0.891 -1.924,-1.338 -1.12,-0.375 -2.698,-1.755 -3.085,-2.354 0.47,-0.22 1.029,-0.33 1.531,-0.48 0,0 0,0 -0.001,0 0.001,0 0.002,0 0.002,0 10e-4,0 10e-4,-0.001 10e-4,-0.001 0.784,-0.234 1.632,-0.537 2.208,-1.075 0.042,-0.04 0.08,-0.075 0.124,-0.119 0.16,-0.172 0.291,-0.37 0.387,-0.593 -0.029,-0.193 0.041,-0.384 0.133,-0.576 0.043,-0.797 -0.452,-1.62 -1.187,-1.929 0.672,0.201 1.358,0.374 2.056,0.355 h 0.09 c 0.835,-0.043 1.698,-0.427 2.093,-1.163 0.398,-0.742 0.117,-1.839 -0.677,-2.12 0.545,0.031 1.1,0.061 1.631,-0.064 0.531,-0.126 1.046,-0.431 1.295,-0.917 0.173,-0.337 0.204,-0.731 0.176,-1.109 -0.082,-1.089 -0.654,-2.133 -1.529,-2.788 -0.874,-0.655 -2.037,-0.911 -3.105,-0.683 0.754,-0.207 1.645,-0.56 1.764,-1.333 0.066,-0.426 -0.139,-0.84 -0.267,-1.252 -0.117,-0.379 -0.172,-0.779 -0.345,-1.135 -0.518,-1.069 -1.86,-1.391 -3.031,-1.591 0.595,-0.44 1.402,-0.398 2.141,-0.445 1.574,-0.1 3.107,-0.715 4.324,-1.716 0.054,-0.312 0.097,-0.627 0.156,-0.937 0.151,-0.781 0.412,-1.535 0.672,-2.286 0.289,-0.833 0.581,-1.664 0.879,-2.493 0.096,-0.289 0.192,-0.578 0.286,-0.858 0.013,-0.01 0.023,-0.019 0.036,-0.029 0.242,-0.635 0.514,-1.262 0.885,-1.821 -10e-4,-0.015 -10e-4,-0.025 -10e-4,-0.041 0.011,-10e-4 0.021,-0.003 0.032,-0.004 0.151,-0.222 0.317,-0.434 0.504,-0.629 0.523,-0.545 1.175,-0.934 1.857,-1.269 0.345,-0.183 0.668,-0.354 0.989,-0.524 0.019,0.016 0.035,0.036 0.054,0.052 0.044,-0.056 0.095,-0.107 0.157,-0.145 0.112,-0.068 0.244,-0.095 0.367,-0.143 0.18,-0.071 0.344,-0.188 0.534,-0.226 0.108,-0.021 0.219,-0.016 0.328,-0.024 0.182,-0.015 0.359,-0.067 0.534,-0.119 0.528,-0.158 1.056,-0.316 1.584,-0.473 0.081,-0.024 0.165,-0.049 0.249,-0.034 0.02,0.003 0.039,0.012 0.058,0.019 0.584,-0.251 3.697,-0.625 3.699,-0.595 0.948,-0.02 1.893,-0.04 2.668,-0.056 1.516,0.095 2.502,0.712 3.135,1.748 0.648,0.706 1.404,1.462 1.962,2.345 0.647,1.026 1.165,2.193 1.455,3.368 0.234,0.947 0.248,1.948 0.294,2.957 0.067,0.311 0.109,0.63 0.143,0.945 0.034,0.314 0.212,0.965 0.106,1.348 5.276,-0.072 10.171,0.862 13.774,6.537 0.232,0.94 0.598,2.424 0.991,4.02 0.101,0.259 0.196,0.519 0.236,0.793 0.011,0.08 0.016,0.16 0.019,0.24 0.02,0.082 0.04,0.164 0.061,0.247 -0.021,-10e-4 -0.042,-0.002 -0.062,-0.003 -0.01,0.216 -0.036,0.431 -0.065,0.644 -0.112,0.837 -0.236,1.691 -0.434,2.516 -0.011,0.13 -0.022,0.255 -0.033,0.386 -0.024,0.02 -0.057,0.048 -0.084,0.071 -0.078,0.274 -0.169,0.542 -0.27,0.806 0.016,0.065 0.029,0.119 0.033,0.136 -0.069,0.098 -0.137,0.196 -0.205,0.294 -0.198,0.435 -0.437,0.848 -0.732,1.231 -0.153,0.199 -0.321,0.384 -0.495,0.564 -0.846,1.197 -1.765,2.28 -3.089,2.952 l 0.779,0.772 c 1.734,1.039 3.817,1.469 6.314,1.312 1.943,-0.122 4.595,-0.748 6.19,-3.035 0.299,-0.429 0.56,-0.904 0.797,-1.453 l 0.064,-0.148 0.108,-0.12 c 0.084,-0.092 0.177,-0.218 0.274,-0.384 -2.275,0.229 -4.176,0.901 -5.796,2.061 -0.581,0.415 -1.227,0.473 -1.731,0.154 -0.51,-0.323 -0.734,-0.951 -0.602,-1.681 l 0.027,-0.151 c 0.506,-2.823 1.251,-5.764 2.947,-6.25 0.67,-0.252 1.34,-0.507 2.01,-0.762 1.3,-0.494 2.6,-0.988 3.906,-1.464 l 0.49,-0.178 0.381,-2.527 c 10e-4,-0.029 0.003,-0.06 0.006,-0.09 0.064,-0.636 0.114,-3.448 -1.923,-12.905 -0.123,-0.573 -0.297,-1.155 -0.482,-1.772 -0.061,-0.202 -0.121,-0.404 -0.18,-0.605 l 0.015,-0.005 c -0.199,-0.64 -0.392,-2.017 -0.835,-5.185 l -0.111,-0.794 0.757,-0.262 c 0.242,-0.083 0.457,-0.15 0.652,-0.21 0.323,-0.1 0.556,-0.172 0.72,-0.266 0.32,-0.183 0.753,-0.278 1.295,-0.283 l 1.02,0.228 c 0.213,0.169 0.435,0.318 0.65,0.463 0.532,0.356 1.081,0.725 1.343,1.348 0.008,0.021 0.55,1.68 0.503,2.836 h 0.002 l 0.605,2.864 c 0.181,0.432 0.376,1.327 0.768,3.418 0.394,2.104 0.521,2.937 0.555,3.305 0.176,0.679 0.341,1.473 0.341,2.058 0.423,1.678 0.589,2.54 0.626,3.021 h 0.001 c 0.086,0.43 0.178,0.849 0.268,1.262 0.218,0.995 0.424,1.935 0.539,2.92 0.091,0.783 0.026,1.546 -0.038,2.284 -0.02,0.233 -0.04,0.466 -0.055,0.698 l -0.019,0.332 c -0.034,0.609 -0.07,1.239 -0.211,1.876 -0.235,1.063 -0.54,2.094 -0.886,3.234 -0.164,0.54 -0.335,1.079 -0.505,1.618 l 0.996,0.017 c 2.72,1.513 4.694,3.755 5.871,6.667 l 0.071,0.175 v 0.19 c 0,0.434 0.096,0.892 0.198,1.376 0.228,1.089 0.513,2.445 -0.325,3.92 L 62.676,7.782 62.593,7.869 C 62.541,7.924 62.493,7.991 62.444,8.055 62.203,8.371 61.801,8.9 61.09,8.903 H 61.084 C 60.339,8.903 59.868,8.295 59.713,8.094 59.581,7.924 59.451,7.749 59.32,7.574 58.843,6.935 58.393,6.332 57.858,5.919 56.67,5.001 55.673,3.927 54.809,2.637 L 54.74,2.534 54.699,2.417 C 54.609,2.16 54.524,1.898 54.443,1.633 L 53.86,0.729 c -0.452,0.69 -0.978,1.318 -1.579,1.867 -0.084,0.077 -0.19,0.17 -0.306,0.264 -0.382,0.416 -0.96,0.935 -1.632,1.175 -0.614,0.22 -1.212,0.475 -1.845,0.744 -0.892,0.38 -1.815,0.772 -2.783,1.056 L 45.433,5.919 C 44.077,6.321 42.539,6.777 41.118,6.447 39.717,6.121 38.351,5.646 37.02,5.141 L 35.533,4.69 c 0.014,0.032 0.031,0.062 0.044,0.094 0.399,0.974 0.641,2.005 0.819,3.042 0.302,1.755 0.423,3.584 -0.059,5.298 -0.483,1.715 -1.651,3.309 -3.314,3.944 -1.07,0.408 -2.25,0.399 -3.392,0.324 -1.287,-0.085 -2.569,-0.246 -3.836,-0.483 -1.262,-0.236 -2.638,-0.655 -3.518,-1.516 -0.011,0.021 -0.018,0.042 -0.029,0.064 -0.496,0.947 -1.479,1.731 -2.408,2.217 -0.153,0.08 -0.309,0.153 -0.468,0.221 -0.084,0.057 -0.169,0.114 -0.256,0.173 -0.147,0.028 -0.3,0.057 -0.447,0.085 -0.595,0.186 -1.213,0.3 -1.837,0.348 -0.763,0.146 -1.534,0.292 -2.306,0.438 C 11.787,18.714 8.935,19.063 6.456,17.457 5.696,17.149 4.953,16.797 4.294,16.313 2.502,14.998 1.5,12.8 1.253,10.591 1.006,8.382 1.441,6.15 2.07,4.018 2.101,3.914 2.136,3.809 2.174,3.706 1.007,3.045 -1.428,1.805 -1.451,1.85 -2.31,1.422 -3.168,0.994 -3.727,0.715"
             style="fill:#1d1d1b;fill-opacity:1;fill-rule:nonzero;stroke:none"
             id="path407" />
        </g>
        <g
           id="g409"
           transform="translate(18.4925,38.2088)">
          <path
             d="M 0,0 C 0.081,0.369 0.126,0.737 0.172,1.103 0.301,1.488 0.43,1.872 0.559,2.257 0.502,2.279 0.445,2.3 0.388,2.321 0.428,2.471 0.472,2.62 0.53,2.77 0.92,3.777 1.682,4.699 2.677,5.073 3.565,4.992 4.471,4.909 5.388,4.826 5.459,4.795 5.525,4.757 5.591,4.72 5.61,4.591 5.629,4.463 5.649,4.335 5.708,4.409 5.768,4.485 5.83,4.564 6.496,4.073 6.924,3.267 7.298,2.505 7.512,2.07 7.725,1.634 7.932,1.194 7.92,1.116 7.909,1.049 7.897,0.966 7.948,0.958 7.997,0.95 8.046,0.942 8.608,-0.28 9.099,-1.531 9.338,-2.85 9.478,-3.622 9.524,-4.402 9.513,-5.184 9.449,-5.396 9.385,-5.61 9.321,-5.824 9.375,-5.922 9.425,-6.015 9.473,-6.103 9.384,-7.337 9.169,-8.57 8.921,-9.782 c -0.09,-0.437 -0.182,-0.88 -0.26,-1.324 -0.019,-0.003 -0.036,-0.005 -0.055,-0.008 0,-0.091 10e-4,-0.196 0.002,-0.308 -0.055,-0.349 -0.095,-0.698 -0.117,-1.046 -1.142,-2.051 -1.676,-4.774 -4.64,-5.514 -1.398,0.81 -2.366,1.716 -2.614,3.294 -0.146,0.926 -0.725,1.781 -0.887,2.707 -0.174,0.993 -0.072,2.032 -0.116,3.05 -0.079,1.859 -0.213,3.718 -0.253,5.578 -0.022,1.024 0.054,2.05 -0.06,3.082 C -0.051,-0.181 -0.02,-0.092 0,0 m -2.71,-7.352 c -0.002,-10e-4 -0.004,-10e-4 -0.006,-0.002 0.014,-0.869 0.029,-1.738 0.043,-2.607 0.215,-0.296 0.303,-0.634 0.306,-0.972 0.007,-1.083 0.191,-3.244 0.301,-3.241 0.031,0.1 0.063,0.2 0.095,0.301 0.048,-0.417 0.094,-0.835 0.143,-1.252 0.014,-0.125 0.031,-0.251 0.049,-0.378 0.047,-1.578 0.874,-2.77 2.448,-3.646 1.402,-0.782 2.808,-0.589 4.252,-0.296 2.418,0.491 4.26,2.127 4.661,4.145 0.276,0.051 0.476,0.291 0.618,0.581 0.054,0.04 0.106,0.078 0.16,0.119 0.018,0.161 0.034,0.319 0.051,0.479 0.172,0.659 0.343,1.318 0.515,1.978 0.531,2.045 1.067,4.115 1.082,6.228 0.014,1.856 -0.376,3.694 -0.905,5.474 -0.132,0.446 -0.277,0.892 -0.435,1.333 0.002,0.087 0.005,0.167 0.008,0.261 C 10.651,1.114 10.633,1.086 10.61,1.051 10.096,2.442 9.423,3.771 8.43,4.862 7.714,5.647 6.709,6.337 5.628,6.48 5.6,6.525 5.569,6.575 5.544,6.616 2.788,6.667 0.316,6.347 -1.114,3.636 -1.468,3.265 -1.757,2.866 -1.903,2.42 -2.064,1.926 -2.085,1.388 -2.183,0.872 -2.297,0.269 -2.428,-0.33 -2.556,-0.952 c 0.087,-0.018 0.16,-0.033 0.225,-0.046 -0.36,-1.413 -0.566,-2.862 -0.534,-4.317 0.015,-0.681 0.081,-1.36 0.155,-2.037"
             style="fill:#1d1d1b;fill-opacity:1;fill-rule:nonzero;stroke:none"
             id="path411" />
        </g>
        <g
           id="g413"
           transform="translate(51.5836,33.0589)">
          <path
             d="M 0,0 C 0.696,-3.438 1.34,-3.846 1.416,-3.883 L 1.51,-3.911 C 2.197,-4.17 2.884,-4.431 3.571,-4.692 4.468,-5.033 5.365,-5.374 6.264,-5.709 6.329,-4.445 6.215,-3.131 5.606,-1.804 3.482,-1.565 1.635,-0.971 0,0"
             style="fill:#ffffff;fill-opacity:1;fill-rule:nonzero;stroke:none"
             id="path415" />
        </g>
        <g
           id="g417"
           transform="translate(15.9362,37.2569)">
          <path
             d="M 0,0 C 0.128,0.622 0.26,1.221 0.374,1.824 0.471,2.34 0.493,2.878 0.654,3.372 0.799,3.818 1.088,4.217 1.442,4.588 2.872,7.299 5.345,7.619 8.1,7.568 8.125,7.527 8.156,7.477 8.184,7.432 9.265,7.289 10.271,6.599 10.986,5.814 c 0.993,-1.091 1.667,-2.42 2.18,-3.811 0.023,0.035 0.041,0.063 0.066,0.102 -0.003,-0.094 -0.005,-0.174 -0.008,-0.261 0.159,-0.441 0.303,-0.887 0.436,-1.333 0.528,-1.78 0.918,-3.618 0.904,-5.474 -0.015,-2.113 -0.55,-4.183 -1.082,-6.228 -0.172,-0.66 -0.343,-1.319 -0.515,-1.978 -0.016,-0.16 -0.033,-0.318 -0.05,-0.479 -0.055,-0.041 -0.107,-0.079 -0.161,-0.119 -0.141,-0.29 -0.342,-0.53 -0.618,-0.581 -0.401,-2.018 -2.243,-3.654 -4.661,-4.145 -1.444,-0.293 -2.849,-0.486 -4.252,0.296 -1.573,0.876 -2.4,2.068 -2.448,3.646 -0.018,0.127 -0.034,0.253 -0.049,0.378 -0.048,0.417 -0.095,0.835 -0.142,1.252 -0.032,-0.101 -0.064,-0.201 -0.096,-0.301 -0.11,-0.003 -0.294,2.158 -0.301,3.241 -0.003,0.338 -0.09,0.676 -0.306,0.972 -0.014,0.869 -0.028,1.738 -0.042,2.607 0.002,0.001 0.004,0.001 0.006,0.001 -0.075,0.678 -0.141,1.357 -0.156,2.038 -0.031,1.455 0.174,2.904 0.534,4.317 C 0.16,-0.033 0.087,-0.018 0,0 M -9.488,0.043 C -9.49,0.042 -9.492,0.041 -9.495,0.039 c 10e-4,0 10e-4,-0.001 0.002,-0.002 -0.067,-0.08 -0.132,-0.16 -0.197,-0.241 -0.393,-0.159 -0.787,-0.318 -1.18,-0.476 0.35,-0.066 0.645,-0.129 0.807,-0.154 0.674,-0.102 1.392,-0.278 1.835,-0.796 0.088,-0.103 0.157,-0.219 0.216,-0.34 0.201,-0.414 0.235,-0.908 0.129,-1.368 -0.022,-0.095 -0.048,-0.189 -0.081,-0.28 -0.17,-0.463 -0.467,-0.864 -0.813,-1.22 0.077,-0.079 0.15,-0.16 0.226,-0.24 0.678,0.062 1.391,-0.204 1.825,-0.734 0.553,-0.676 0.592,-1.709 0.12,-2.439 0.076,-0.03 0.143,-0.075 0.215,-0.11 1.121,0.027 2.2,-0.787 2.605,-1.851 0.439,-1.158 0.18,-2.497 -0.453,-3.561 -0.642,-1.079 -1.659,-1.929 -2.835,-2.369 0.624,-0.081 1.053,-0.7 1.18,-1.316 0.171,-0.828 -0.077,-1.731 -0.646,-2.356 -0.086,-0.095 -0.181,-0.18 -0.279,-0.261 0.024,-0.005 0.046,-0.014 0.071,-0.017 0.58,-0.065 1.002,0.501 1.417,0.911 0.459,0.454 1.05,0.772 1.681,0.906 0.358,0.076 0.733,0.096 1.069,0.24 0.205,0.088 0.396,0.241 0.509,0.43 0.628,-0.135 0.817,-0.787 0.671,-1.372 -0.02,-0.006 -0.04,-0.011 -0.06,-0.017 0.013,-0.02 0.026,-0.04 0.04,-0.06 -0.064,-0.209 -0.17,-0.406 -0.315,-0.564 -0.245,-0.265 -0.57,-0.448 -0.805,-0.723 -0.565,-0.658 -0.475,-1.636 -0.353,-2.495 0.395,-2.79 0.906,-5.809 2.967,-7.73 1.298,-1.211 3.064,-1.813 4.824,-2.046 0.032,-0.005 0.065,-0.008 0.099,-0.01 1.29,-0.425 2.711,-0.447 4.009,-0.047 0.473,0.145 0.924,0.351 1.353,0.598 0.423,0.31 0.851,0.624 1.283,0.94 0.439,0.407 0.829,0.867 1.153,1.368 0.473,0.729 0.807,1.54 1.011,2.384 -0.009,0.014 -0.019,0.028 -0.027,0.041 0.026,0.06 0.051,0.118 0.076,0.178 0.142,0.667 0.206,1.351 0.18,2.032 -0.008,0.202 -0.025,0.403 -0.049,0.604 -0.325,0.976 -0.631,1.893 -0.998,2.994 1.038,0.199 2.04,0.44 3.056,0.566 0.581,0.072 1.201,-0.144 1.777,-0.057 1.55,0.234 3.087,0.56 4.629,0.85 3.199,0.7 4.313,3.63 6.143,5.839 0.407,1.819 0.651,3.643 0.552,5.456 -0.021,0.036 -0.043,0.072 -0.065,0.107 0.015,0.074 0.029,0.146 0.043,0.219 -0.049,0.636 -0.14,1.27 -0.285,1.902 -0.075,0.327 -0.166,0.653 -0.29,0.964 -0.072,0.096 -0.141,0.189 -0.213,0.286 0.015,0.025 0.029,0.048 0.044,0.073 -0.036,0.066 -0.068,0.133 -0.109,0.197 -0.424,0.658 -1.104,1.102 -1.763,1.525 -0.419,0.269 -0.839,0.538 -1.271,0.788 -0.144,0.083 -0.292,0.165 -0.443,0.24 -0.174,0.075 -0.343,0.148 -0.503,0.217 -0.324,0.114 -0.658,0.178 -0.999,0.152 -1.124,-0.345 -2.065,-0.756 -2.959,-0.391 -0.355,-0.015 -0.711,-0.029 -1.066,-0.044 -0.356,-0.014 -0.833,0.069 -0.867,0.424 -0.001,0.004 0.001,0.009 0.001,0.013 -0.098,0.056 -0.182,0.104 -0.238,0.136 0.549,0.807 1.658,2.283 1.746,2.289 0.129,0.008 0.237,0.098 0.334,0.184 1.84,1.619 3.569,3.416 4.751,5.563 1.183,2.147 1.785,4.686 1.28,7.085 -0.248,1.181 -0.809,2.363 -1.822,3.02 -0.838,0.543 -1.878,0.663 -2.876,0.681 -1.281,0.024 -2.564,-0.096 -3.817,-0.355 -0.952,-0.196 -1.97,-0.504 -2.595,-1.299 -0.193,-0.247 -0.481,-0.69 -0.698,-1.138 -0.026,0.029 -0.051,0.055 -0.077,0.083 -0.039,-0.089 -0.076,-0.179 -0.106,-0.271 -0.067,-0.206 -0.139,-0.439 -0.331,-0.539 -0.202,-0.106 -0.453,-0.004 -0.605,0.169 -0.014,0.016 -0.032,0.029 -0.045,0.046 -0.144,0.203 -0.185,0.459 -0.227,0.704 -0.123,0.73 -0.299,1.457 -0.573,2.142 -0.47,0.549 -1.064,1.008 -1.716,1.347 -0.004,0.038 -0.007,0.071 -0.012,0.111 -0.037,-0.017 -0.071,-0.032 -0.108,-0.049 -0.233,0.115 -0.473,0.217 -0.716,0.3 C 8.155,18.618 6.2,18.493 4.321,18.259 3.644,18.175 2.966,18.077 2.316,17.873 0.157,17.198 -1.533,15.363 -2.319,13.242 -2.623,12.423 -2.805,11.562 -2.934,10.697 -3.113,9.497 -3.191,8.261 -2.918,7.079 -2.688,6.077 -2.208,5.054 -2.494,4.067 -2.793,3.038 -3.305,2.871 -4.148,2.653 -4.149,2.662 -4.151,2.673 -4.153,2.683 -4.198,2.661 -4.242,2.639 -4.287,2.616 -4.471,2.569 -4.668,2.518 -4.882,2.453 L -5.251,2.139 C -5.902,1.817 -6.554,1.495 -7.2,1.175 -7.679,1.289 -8.203,1.14 -8.619,0.865 -8.953,0.644 -9.229,0.352 -9.488,0.043"
             style="fill:#ffffff;fill-opacity:1;fill-rule:nonzero;stroke:none"
             id="path419" />
        </g>
        <g
           id="g421"
           transform="translate(40.9007,38.1782)">
          <path
             d="m 0,0 c -0.025,-0.24 0.038,-0.276 0.152,-0.341 0.107,-0.06 0.247,-0.112 0.409,-0.159 2.323,1.939 5.291,2.802 8.835,2.581 3.4,-0.214 6.051,-1.55 7.665,-3.864 0.349,-0.501 0.653,-1.044 0.927,-1.657 1.219,-1.48 1.842,-4.521 1.905,-9.286 0.002,-0.107 0.003,-0.193 0.004,-0.256 l 0.025,-0.079 -0.011,-0.106 0.391,-3.783 c -0.068,-1.815 -0.49,-5.358 -1.976,-12.256 -0.139,-0.648 -0.333,-1.296 -0.521,-1.922 -0.058,-0.197 -0.118,-0.393 -0.175,-0.589 -0.069,-0.344 -0.401,-2.446 -0.645,-4.105 0.338,-0.105 0.64,-0.21 0.941,-0.382 -10e-4,0 -10e-4,0 0,0 0.011,0 0.129,-0.034 0.39,-0.026 0.183,0.134 0.36,0.252 0.521,0.36 0.243,0.163 0.574,0.385 0.634,0.49 0.123,0.294 0.247,1.135 0.316,1.736 l -0.072,0.04 0.879,4.157 0.068,0.038 c 0.028,0.11 0.06,0.247 0.096,0.405 l 1.032,5.692 c 0.071,0.267 0.153,0.696 0.217,1.069 l -0.119,0.029 0.241,0.95 c 0.149,0.586 0.336,1.449 0.465,2.083 l -0.023,0.005 0.185,0.922 c 0.088,0.441 0.183,0.871 0.275,1.295 0.207,0.947 0.403,1.841 0.507,2.73 0.069,0.586 0.014,1.22 -0.044,1.89 -0.021,0.249 -0.042,0.497 -0.058,0.744 l -0.02,0.344 c -0.031,0.556 -0.061,1.082 -0.168,1.565 -0.22,0.996 -0.514,1.988 -0.848,3.089 -0.366,1.206 -0.746,2.408 -1.126,3.61 l -0.23,0.797 c -0.113,0.399 -0.259,0.773 -0.436,1.149 l -0.23,0.448 C 19.957,0.167 19.427,0.841 18.802,1.411 18.732,1.475 18.64,1.556 18.54,1.635 L 18.415,1.752 C 18.043,2.168 17.71,2.387 17.523,2.454 16.854,2.693 16.201,2.971 15.57,3.24 14.691,3.614 13.86,3.968 13.002,4.219 L 12.715,4.304 C 11.589,4.638 10.315,5.016 9.394,4.802 7.623,4.391 5.848,3.697 4.132,3.025 3.731,2.867 3.329,2.711 2.927,2.556 L 2.585,2.426 C 2.454,2.325 2.323,2.227 2.193,2.129 1.204,1.385 0.344,0.738 0,0"
             style="fill:#ffffff;fill-opacity:1;fill-rule:nonzero;stroke:none"
             id="path423" />
        </g>
        <g
           id="g425"
           transform="translate(18.4736,34.8558)">
          <path
             d="m 0,0 c 0.04,-1.86 0.174,-3.719 0.253,-5.578 0.044,-1.018 -0.058,-2.057 0.116,-3.05 0.162,-0.926 0.741,-1.781 0.887,-2.707 0.248,-1.577 1.216,-2.484 2.614,-3.294 2.964,0.74 3.498,3.463 4.64,5.514 0.022,0.348 0.062,0.697 0.117,1.046 -0.001,0.112 -0.002,0.217 -0.002,0.308 0.019,0.003 0.036,0.005 0.055,0.008 0.078,0.444 0.17,0.887 0.259,1.324 0.249,1.212 0.464,2.445 0.553,3.679 -0.048,0.088 -0.098,0.181 -0.152,0.279 0.064,0.214 0.128,0.428 0.191,0.64 C 9.543,-1.049 9.497,-0.269 9.357,0.503 9.118,1.822 8.627,3.073 8.065,4.295 8.016,4.303 7.967,4.311 7.915,4.319 7.928,4.402 7.939,4.469 7.951,4.547 7.744,4.987 7.531,5.423 7.317,5.858 6.943,6.62 6.515,7.426 5.849,7.917 5.787,7.838 5.727,7.762 5.668,7.688 5.648,7.816 5.629,7.944 5.609,8.073 5.544,8.11 5.478,8.148 5.407,8.179 4.49,8.263 3.584,8.345 2.696,8.426 1.701,8.052 0.939,7.13 0.549,6.123 0.491,5.974 0.447,5.824 0.407,5.674 0.464,5.653 0.521,5.632 0.578,5.61 0.449,5.226 0.32,4.841 0.191,4.456 0.145,4.09 0.1,3.722 0.019,3.353 -0.001,3.261 -0.032,3.172 -0.06,3.082 0.054,2.05 -0.022,1.024 0,0"
             style="fill:#ffffff;fill-opacity:1;fill-rule:nonzero;stroke:none"
             id="path427" />
        </g>
      </g>
    </g>
  </g>
</svg>
